PathFileType	4	(X/Y/Z)	G:\TennisProject\Miami_Dimitrov_Sinner_masked_Sports2D\Miami_Dimitrov_Sinner_masked_Sports2D_px_person00.trc
DataRate	CameraRate	NumFrames	NumMarkers	Units	OrigDataRate	OrigDataStartFrame	OrigNumFrames
25	25	11	22	m	25	311	499
Frame#	Time	Hip			RHip			RKnee			RAnkle			RBigToe			RSmallToe			RHeel			LHip			LKnee			LAnkle			LBigToe			LSmallToe			LHeel			Neck			Head			Nose			RShoulder			RElbow			RWrist			LShoulder			LElbow			LWrist		
		X1	Y1	Z1	X2	Y2	Z2	X3	Y3	Z3	X4	Y4	Z4	X5	Y5	Z5	X6	Y6	Z6	X7	Y7	Z7	X8	Y8	Z8	X9	Y9	Z9	X10	Y10	Z10	X11	Y11	Z11	X12	Y12	Z12	X13	Y13	Z13	X14	Y14	Z14	X15	Y15	Z15	X16	Y16	Z16	X17	Y17	Z17	X18	Y18	Z18	X19	Y19	Z19	X20	Y20	Z20	X21	Y21	Z21	X22	Y22	Z22
311	12.44	1162.6763767220243	236.32234819663427	0.0	1156.13147200709	236.82517858312502	0.0	1152.6773921569834	257.9979170227982	0.0	1153.308077755087	272.3716115466149	0.0	1150.4414396849938	278.69472605496026	0.0	1148.5694895471229	276.7410062136785	0.0	1155.12872929189	274.3604369339935	0.0	1168.9442112472325	236.74155899251878	0.0	1171.666644245626	257.42516766625556	0.0	1172.871210381294	278.5677918673884	0.0	1172.6074311338089	284.81844454154134	0.0	1176.4069660110495	284.28972248074683	0.0	1171.4977212843307	281.80636164244254	0.0	1162.3770048848223	204.7140927121199	0.0	1161.903147120367	187.30366362975292	0.0	1161.9679295289284	196.87214104282873	0.0	1151.7583347273987	209.25795689815618	0.0	1146.5753199957217	225.56404859353307	0.0	1156.9957830666992	232.97436511000416	0.0	1172.7585624278981	207.8464600235892	0.0	1181.1263643626717	221.14809489504512	0.0	1175.4711145809024	230.214437961745	0.0
312	12.48	1156.501043413396	235.7549953534936	0.0	1149.1901570600312	235.95983977310894	0.0	1140.8796413894697	256.92217443318316	0.0	1137.9684706835915	276.21974544241596	0.0	1131.5010830430683	281.94180525767547	0.0	1130.8734482114123	280.15835666378655	0.0	1140.0647989637093	279.39372918676173	0.0	1163.3392929603317	236.7343349263345	0.0	1167.0989960534969	258.644268632976	0.0	1172.313299442134	279.30582124874076	0.0	1172.7732275359	285.271799433341	0.0	1176.5225484312152	284.4869733444722	0.0	1171.8282309208198	282.5295633707488	0.0	1155.7050181723034	204.20330811875618	0.0	1155.4516574498198	187.43506875973486	0.0	1155.0080411422741	196.92893988826594	0.0	1144.9650707647152	207.84007337713913	0.0	1139.792871112471	224.19046969592097	0.0	1150.1375117523469	231.84535045356833	0.0	1166.2665299117677	207.1702900712093	0.0	1173.8845508808558	222.04199968745797	0.0	1167.994729406606	231.69257523706744	0.0
313	12.52	1149.7164152245946	235.0159622680431	0.0	1142.3188537817566	234.97300825809506	0.0	1130.892629334286	255.60661696978764	0.0	1127.9061924011116	279.10326449580066	0.0	1120.4383857298803	284.65626913536147	0.0	1120.284130106257	283.3108852483407	0.0	1129.7942692622264	282.90145370357845	0.0	1156.9526438458527	236.3557726148539	0.0	1161.320364736488	259.6463194024102	0.0	1171.0543244802716	279.24443394167747	0.0	1172.5012126395384	285.74495783461	0.0	1175.7143669394259	284.6258492352407	0.0	1172.0487860016956	282.291443119742	0.0	1149.4762921715933	202.83461624246218	0.0	1149.4724024844215	186.2267651523946	0.0	1148.7738798487628	195.76857501958168	0.0	1138.6239910917388	205.88409889655543	0.0	1133.1447194417306	221.6735921824339	0.0	1142.25280232508	229.48963602991338	0.0	1160.1956977317861	206.1466525465551	0.0	1167.6822130506218	222.08530045127173	0.0	1161.9607051378623	232.13360076155072	0.0
314	12.56	1142.6714517458768	234.1092833707376	0.0	1135.6471787287553	234.2419308137443	0.0	1123.1106365270396	254.1592225398498	0.0	1123.2879952712378	279.2946864975288	0.0	1117.6149398347109	285.6560464000586	0.0	1116.601840284222	284.62033652478345	0.0	1125.265902459947	283.0507900552643	0.0	1149.849018708309	235.9656383865165	0.0	1154.1111616811188	259.6851953606481	0.0	1167.5528262813525	278.231032413134	0.0	1169.4866778913106	285.6513353855471	0.0	1172.4534480835384	284.17750265653706	0.0	1169.9119947119702	280.83164804057566	0.0	1143.7233294602345	201.42197016847754	0.0	1143.8581281301035	185.1214082501678	0.0	1143.2732647786484	194.4360174307555	0.0	1132.785488561638	204.42461548108724	0.0	1127.0588168216868	218.0005197231629	0.0	1133.230632921261	225.79798589749674	0.0	1154.5931294148577	205.52039875194467	0.0	1162.0269522394703	221.8093461114725	0.0	1155.4033195594632	231.48492839426854	0.0
315	12.6	1135.8919986522515	233.2784514713149	0.0	1129.1748642408247	233.8591634259949	0.0	1116.6135517118132	253.15048572617633	0.0	1120.325558728503	277.42415764264354	0.0	1117.5987688139573	285.05754054462426	0.0	1115.3931858317765	284.2743763875381	0.0	1122.809436104816	280.55708098125785	0.0	1142.7443213051017	235.68729660030158	0.0	1146.5070518832483	258.91947393655107	0.0	1160.6832913151277	277.49680111447253	0.0	1161.831133706189	285.22356080041726	0.0	1165.0274299104074	283.6510098988797	0.0	1163.361994079246	279.63068445101686	0.0	1138.1303275778962	200.75301678138987	0.0	1138.3100756343683	185.17018216976737	0.0	1137.699140401408	193.94323910219015	0.0	1127.1524329349745	203.85109507630034	0.0	1121.1157405774818	214.4756918051598	0.0	1124.6513903843847	222.68117335132638	0.0	1149.1122165828363	205.34370955858174	0.0	1156.1443126237182	221.29888076068053	0.0	1148.1222888466204	229.79158516258542	0.0
316	12.64	1129.6188638369651	232.92308122693538	0.0	1123.0240666710038	233.4619161842897	0.0	1110.322777729547	252.72533500091572	0.0	1114.945792865427	275.13165403459334	0.0	1113.2605540029613	283.59212773481937	0.0	1110.7849354822818	282.838700618272	0.0	1117.7142518284613	277.87502556853667	0.0	1136.215793447845	235.19962322333322	0.0	1139.4918354960296	257.8843273092913	0.0	1151.3771184270056	277.6009445151193	0.0	1150.8317947501382	285.1875656511986	0.0	1154.456462247799	283.91572142368653	0.0	1153.3508526554824	279.83602747514465	0.0	1132.3994619611774	200.97031575222226	0.0	1132.4727289068203	185.24515586483253	0.0	1131.6497562988113	194.1421802529959	0.0	1121.4590627739708	204.11809778646034	0.0	1114.9034319386194	213.80238298735355	0.0	1118.09683400143	222.36980967239919	0.0	1143.3446694056652	205.44829123481804	0.0	1149.9400441629232	221.0988253714	0.0	1141.403102300742	228.02926617509348	0.0
317	12.68	1123.7190027318752	233.45904265981477	0.0	1117.2050166769332	233.45715608628313	0.0	1103.8627482627553	252.9526487818817	0.0	1105.7325755952938	274.0167783218813	0.0	1101.556415133261	282.54053415316196	0.0	1099.8016104008761	281.47730767877385	0.0	1108.1694589999413	277.33310844067836	0.0	1130.1946315231185	234.98754894323736	0.0	1133.0656689736757	257.35705284664346	0.0	1141.4957645896995	278.42395318435985	0.0	1139.1896594327802	286.2008725050921	0.0	1143.240512867921	285.4952288374338	0.0	1142.6073038130648	281.4185977058612	0.0	1126.4315941271402	202.1821949341814	0.0	1126.1396278751326	184.88072649509712	0.0	1125.4644798999618	195.05078609147188	0.0	1115.6725467382544	205.33387024260722	0.0	1108.9654906493492	216.30493535904904	0.0	1112.8249900924225	224.63177263430288	0.0	1137.1385879988393	206.2216387589095	0.0	1143.6395632070808	222.06837828443338	0.0	1135.1606541051883	228.02288780470175	0.0
318	12.72	1117.994729513865	235.13808470782132	0.0	1111.45960042934	234.94251464871024	0.0	1097.3492825315795	254.4706829982456	0.0	1093.456856484893	275.238982476839	0.0	1085.3531438784714	283.2753495346003	0.0	1084.4892979834906	281.86421395166343	0.0	1095.016021839679	279.4690046093667	0.0	1124.5456373893278	236.211724309248	0.0	1126.9104446759818	258.14229728698626	0.0	1132.8127116106034	280.2963416883547	0.0	1129.8455902967835	288.3548525012771	0.0	1133.7974245967746	287.9808308024973	0.0	1133.4474412695702	283.8772168602831	0.0	1120.3007870217625	204.66667834239132	0.0	1119.4106265146615	186.21411842273505	0.0	1119.3944268657608	197.4333942328884	0.0	1109.866980162833	207.7605135280497	0.0	1103.9721103810966	219.8275862364903	0.0	1107.576542116117	228.22431350702453	0.0	1130.7497388132	208.11336600533252	0.0	1137.1128351308903	224.1440723976134	0.0	1128.6162255519996	230.68303225814606	0.0
319	12.76	1112.4552294011355	237.41540573458474	0.0	1105.7043184439885	237.81189419366723	0.0	1090.4993039591363	257.21543636973513	0.0	1080.2763539059563	278.4746481946605	0.0	1069.8763124890525	285.7312861909206	0.0	1069.4792005092959	284.1168552005142	0.0	1080.9390103184553	282.9731832965018	0.0	1119.3100576118106	238.58905390648047	0.0	1121.17226333248	260.02209654554525	0.0	1127.103015636078	282.9291041426678	0.0	1125.0292312560127	290.729572388936	0.0	1128.4495523699252	290.116827641455	0.0	1127.6721677752168	286.3474142287437	0.0	1113.9020046822216	207.8634299688958	0.0	1112.500862506069	190.6058375712195	0.0	1113.10524327038	201.16929944518884	0.0	1103.9025889723514	211.22887887367665	0.0	1099.4282010281365	223.46052455622973	0.0	1101.8806331613453	232.54215000238065	0.0	1124.357014601342	210.51668750294044	0.0	1130.1178619377326	225.73531038142545	0.0	1123.3515892427804	234.68269018905863	0.0
320	12.8	1106.969319152584	239.45105030888817	0.0	1099.8532938292096	240.49034765352192	0.0	1082.8602333707036	259.09853934598783	0.0	1069.4015888474491	281.81042023735915	0.0	1058.6225771982336	288.1374452461089	0.0	1058.2996766769484	286.4776797836952	0.0	1069.8681459491477	286.03960742498566	0.0	1114.133567466456	240.6679718461022	0.0	1116.4720233744333	261.9635594607951	0.0	1124.7997542032606	284.83908812186513	0.0	1124.1750728356706	292.10102985524173	0.0	1127.4396347767743	291.16732145528533	0.0	1125.6914983379218	287.8572102329922	0.0	1106.8526146386043	210.63815209554315	0.0	1105.37822319395	195.66897150205605	0.0	1106.1960689475827	204.69271191371146	0.0	1097.2943205385484	214.62616242418312	0.0	1094.0934246024344	226.89699063706462	0.0	1094.732331556933	236.15387731802582	0.0	1117.5151790795942	212.73488445990213	0.0	1121.9715435783573	226.35507494122308	0.0	1118.4263756802045	237.78618140180558	0.0
321	12.84	1101.0397785860087	241.30881200163665	0.0	1093.543730709805	242.2106777897008	0.0	1074.8170300267846	258.24406571614475	0.0	1063.2594731121035	283.61396984287103	0.0	1052.7674450192485	289.052856741552	0.0	1052.4999600569804	287.54417723633554	0.0	1064.3937949807496	287.56720722960927	0.0	1108.3042001304188	242.27875164618268	0.0	1113.0425877285002	263.71642579630446	0.0	1124.2783211192968	285.3735452600695	0.0	1124.763405557554	292.29872611662995	0.0	1128.2597390173803	291.4491674957824	0.0	1125.7906587586285	288.38576799572155	0.0	1098.7043580863897	212.54251557648217	0.0	1097.6319695473353	198.37406244622895	0.0	1098.4354572654916	206.71538500370588	0.0	1089.4010427364324	216.5969168103481	0.0	1087.1502849986082	229.0751883595509	0.0	1084.9414005443582	237.33407729252684	0.0	1109.142588436608	215.00681232283466	0.0	1110.7346841367294	228.43195961802024	0.0	1106.661877392222	238.96433441094706	0.0
